<svg width="110" height="37" viewBox="0 0 110 37" fill="none" xmlns="http://www.w3.org/2000/svg">
<path d="M0 4C0 1.79086 1.79086 0 4 0H106C108.209 0 110 1.79086 110 4V33C110 35.2091 108.209 37 106 37H4C1.79086 37 0 35.2091 0 33V4Z" fill="#F56400"/>
<path d="M29.9684 5.37685V14.1646C29.9684 14.1646 33.0488 14.1646 34.6974 14.0388C35.9939 13.8107 36.2325 13.6849 36.4712 12.3816L36.9484 10.4728H38.3584L38.1198 14.6444L38.2449 18.9183H36.8233L36.4712 17.2494C36.119 16.0617 35.6418 15.8204 34.6974 15.7063C33.5159 15.5805 29.9684 15.5805 29.9684 15.5805V22.9509C29.9684 24.3683 30.6843 24.9738 32.3329 24.9738H37.3006C38.8357 24.9738 40.3693 24.848 41.3253 22.597L42.6101 19.7403H43.8033C43.6782 20.3342 43.0874 25.5677 42.9739 26.7451C42.9739 26.7451 38.4835 26.631 36.5963 26.631H28.0811L23 26.7451V25.4536L24.6486 25.0879C25.8418 24.848 26.1939 24.4941 26.1939 23.5448C26.1939 23.5448 26.319 20.3342 26.319 14.9852C26.319 9.64933 26.1939 6.43729 26.1939 6.43729C26.1939 5.37393 25.8418 5.13405 24.6486 4.89417L23 4.54313V3.23988L27.9677 3.34227H37.4257C39.3129 3.34227 42.4952 3 42.4952 3C42.4952 3 42.3817 5.01118 42.2566 9.76488H40.9601L40.4828 8.09597C40.0172 5.959 39.3115 4.89563 38.0048 4.89563H30.5708C29.9684 4.89709 29.9684 5.01118 29.9684 5.37685ZM49.1115 6.31443H50.5331V11.308L55.3872 11.0681L55.1486 13.3309L50.4196 12.9652V21.7647C50.4196 24.2556 51.249 25.2152 52.6706 25.2152C53.9554 25.2152 54.91 24.4955 55.2621 23.9017L55.9664 24.7354C55.2621 26.3926 53.2614 27.2263 51.3625 27.2263C49.0096 27.2263 47.0991 25.809 47.0991 23.0782V13.0896H44.2791V11.9019C46.6451 11.662 48.4072 10.2329 49.1115 6.31443ZM59.2854 21.6374L60.2283 23.9002C60.5804 24.848 61.4098 25.809 63.2971 25.809C65.3094 25.809 66.1388 24.7354 66.1388 23.4321C66.1388 19.3864 58.2159 20.5755 58.2159 15.1124C58.2159 12.0276 60.6939 10.5869 63.8878 10.5869C65.3094 10.5869 67.4353 10.8268 68.5033 11.3065C68.2647 12.4942 68.1396 14.0374 68.1396 15.2265L66.9682 15.3406L66.1388 12.9638C65.9002 12.3816 64.9457 11.9004 63.7743 11.9004C62.3527 11.9004 60.9325 12.4942 60.9325 14.0374C60.9325 17.7175 69.0941 16.894 69.0941 22.3571C69.0941 25.4536 66.3775 27.1108 63.0584 27.1108C60.5804 27.1108 58.0908 26.1513 58.0908 26.1513C58.3294 24.7339 58.2159 23.1923 58.0908 21.6374H59.2854ZM68.5048 33.0419C68.8569 31.7387 69.0956 30.0829 69.3342 28.5281L70.6307 28.414L71.1079 30.905C71.2214 31.4988 71.5736 31.9786 72.5179 31.9786C74.053 31.9786 76.0654 31.0308 77.9628 27.7046C77.1218 25.6817 74.6438 19.1567 72.3928 14.1632C71.802 12.8497 71.6885 12.7341 70.8693 12.4942L70.2669 12.2661V11.0667L73.8246 11.1925L78.1898 10.9526V12.1417L77.1218 12.3816C76.2924 12.4957 75.9505 12.9638 75.9505 13.445C75.9505 13.5708 75.9505 13.6849 76.064 13.9247C76.291 14.6444 78.1898 19.9817 79.6115 23.5462C80.7828 21.0553 83.0338 15.4679 83.3859 14.5186C83.5111 14.0388 83.6246 13.9247 83.6246 13.5708C83.6246 12.9652 83.2724 12.6113 82.4532 12.3831L81.6122 12.1417V10.954L84.9312 11.0681L88 10.954V12.1417L87.4092 12.6098C86.2277 13.0896 86.1026 13.2036 85.6355 14.1632L80.4408 26.3897C77.3604 33.4061 74.1665 34 71.9257 34C70.5055 34.0015 69.4375 33.6358 68.5048 33.0419Z" fill="white"/>
</svg>
