<svg width="110" height="37" viewBox="0 0 110 37" fill="none" xmlns="http://www.w3.org/2000/svg">
<path d="M0 4C0 1.79086 1.79086 0 4 0H106C108.209 0 110 1.79086 110 4V33C110 35.2091 108.209 37 106 37H4C1.79086 37 0 35.2091 0 33V4Z" fill="#F56400"/>
<path d="M34.1107 7.07016V14.724C34.1107 14.724 36.812 14.724 38.2577 14.6144C39.3947 14.4158 39.6039 14.3062 39.8132 13.1711L40.2317 11.5086H41.4681L41.2589 15.1419L41.3686 18.8643H40.122L39.8132 17.4108C39.5044 16.3763 39.0859 16.1662 38.2577 16.0668C37.2216 15.9572 34.1107 15.9572 34.1107 15.9572V22.3766C34.1107 23.6111 34.7385 24.1385 36.1842 24.1385H40.5405C41.8867 24.1385 43.2315 24.0289 44.0699 22.0684L45.1965 19.5803H46.2429C46.1332 20.0975 45.6151 24.6557 45.5156 25.6812C45.5156 25.6812 41.5778 25.5818 39.9229 25.5818H32.4557L28 25.6812V24.5564L29.4457 24.2378C30.492 24.0289 30.8008 23.7207 30.8008 22.8939C30.8008 22.8939 30.9105 20.0975 30.9105 15.4387C30.9105 10.7914 30.8008 7.99377 30.8008 7.99377C30.8008 7.06762 30.492 6.85869 29.4457 6.64976L28 6.34402V5.20893L32.3563 5.29811H40.6502C42.3052 5.29811 45.0958 5 45.0958 5C45.0958 5 44.9963 6.75167 44.8866 10.892H43.7496L43.3311 9.43843C42.9228 7.57719 42.3039 6.65103 41.1581 6.65103H34.639C34.1108 6.6523 34.1107 6.75167 34.1107 7.07016ZM50.8978 7.88676H52.1444V12.236L56.4011 12.0271L56.1919 13.9979L52.0449 13.6794V21.3434C52.0449 23.5129 52.7722 24.3487 54.0188 24.3487C55.1455 24.3487 55.9826 23.7219 56.2914 23.2047L56.909 23.9308C56.2914 25.3742 54.5369 26.1003 52.8717 26.1003C50.8084 26.1003 49.1331 24.8659 49.1331 22.4875V13.7877H46.6601V12.7533C48.7349 12.5443 50.2802 11.2996 50.8978 7.88676ZM59.8195 21.2326L60.6464 23.2034C60.9551 24.0289 61.6824 24.8659 63.3375 24.8659C65.1021 24.8659 65.8294 23.9308 65.8294 22.7957C65.8294 19.272 58.8816 20.3077 58.8816 15.5495C58.8816 12.8627 61.0546 11.6079 63.8555 11.6079C65.1021 11.6079 66.9663 11.8169 67.9029 12.2347C67.6937 13.2691 67.584 14.6132 67.584 15.6489L66.5567 15.7483L65.8294 13.6781C65.6202 13.1711 64.7832 12.752 63.7559 12.752C62.5093 12.752 61.2639 13.2691 61.2639 14.6132C61.2639 17.8185 68.421 17.1012 68.421 21.8594C68.421 24.5564 66.0387 25.9997 63.1281 25.9997C60.9551 25.9997 58.7719 25.164 58.7719 25.164C58.9812 23.9295 58.8816 22.5868 58.7719 21.2326H59.8195ZM67.9042 31.1655C68.213 30.0305 68.4223 28.5883 68.6315 27.2341L69.7685 27.1348L70.1869 29.3044C70.2865 29.8215 70.5953 30.2394 71.4234 30.2394C72.7696 30.2394 74.5343 29.4139 76.1981 26.5169C75.4607 24.755 73.2876 19.072 71.3137 14.7228C70.7956 13.5788 70.6961 13.4781 69.9777 13.2691L69.4494 13.0705V12.0258L72.5693 12.1354L76.3972 11.9265V12.9621L75.4607 13.1711C74.7333 13.2704 74.4335 13.6781 74.4335 14.0973C74.4335 14.2068 74.4335 14.3062 74.533 14.5151C74.7321 15.1419 76.3972 19.7905 77.6439 22.8951C78.6711 20.7256 80.645 15.8591 80.9538 15.0323C81.0636 14.6144 81.1631 14.5151 81.1631 14.2068C81.1631 13.6794 80.8543 13.3711 80.1359 13.1724L79.3984 12.9621V11.9277L82.3089 12.0271L85 11.9277V12.9621L84.4819 13.3698C83.4458 13.7877 83.3361 13.887 82.9265 14.7228L78.3712 25.3717C75.6699 31.4827 72.8691 32 70.9041 32C69.6587 32.0013 68.7221 31.6828 67.9042 31.1655Z" fill="white"/>
</svg>
