<svg width="111" height="37" viewBox="0 0 111 37" fill="none" xmlns="http://www.w3.org/2000/svg">
<rect width="111" height="37" rx="3" fill="black"/>
<path d="M39.49 18.27C39.49 17.48 39.42 16.73 39.3 16H28V20.51H34.47C34.18 21.99 33.33 23.24 32.07 24.09V27.09H35.93C38.19 25 39.49 21.92 39.49 18.27Z" fill="#4285F4"/>
<path d="M28 30C31.24 30 33.95 28.92 35.93 27.09L32.07 24.09C30.99 24.81 29.62 25.25 28 25.25C24.87 25.25 22.22 23.14 21.27 20.29H17.29V23.38C19.26 27.3 23.31 30 28 30Z" fill="#34A853"/>
<path d="M21.27 20.29C21.02 19.57 20.89 18.8 20.89 18C20.89 17.2 21.03 16.43 21.27 15.71V12.62H17.29C16.47 14.24 16 16.06 16 18C16 19.94 16.47 21.76 17.29 23.38L21.27 20.29Z" fill="#FBBC05"/>
<path d="M28 10.75C29.77 10.75 31.35 11.36 32.6 12.55L36.02 9.13C33.95 7.19 31.24 6 28 6C23.31 6 19.26 8.7 17.29 12.62L21.27 15.71C22.22 12.86 24.87 10.75 28 10.75Z" fill="#EA4335"/>
<path d="M67.2114 20.6312C67.2114 22.9909 65.375 24.7297 63.1213 24.7297C60.8676 24.7297 59.0312 22.9909 59.0312 20.6312C59.0312 18.2549 60.8676 16.5327 63.1213 16.5327C65.375 16.5327 67.2114 18.2549 67.2114 20.6312ZM65.421 20.6312C65.421 19.1566 64.3566 18.1477 63.1213 18.1477C61.886 18.1477 60.8217 19.1566 60.8217 20.6312C60.8217 22.091 61.886 23.1147 63.1213 23.1147C64.3566 23.1147 65.421 22.0891 65.421 20.6312Z" fill="white"/>
<path d="M76.0349 20.6312C76.0349 22.9909 74.1985 24.7297 71.9449 24.7297C69.6912 24.7297 67.8548 22.9909 67.8548 20.6312C67.8548 18.2567 69.6912 16.5327 71.9449 16.5327C74.1985 16.5327 76.0349 18.2549 76.0349 20.6312ZM74.2445 20.6312C74.2445 19.1566 73.1801 18.1477 71.9449 18.1477C70.7096 18.1477 69.6452 19.1566 69.6452 20.6312C69.6452 22.091 70.7096 23.1147 71.9449 23.1147C73.1801 23.1147 74.2445 22.0891 74.2445 20.6312Z" fill="white"/>
<path d="M84.4908 16.7803V24.1384C84.4908 27.1651 82.7151 28.4013 80.6158 28.4013C78.6397 28.4013 77.4504 27.0727 77.0018 25.9862L78.5607 25.3339C78.8382 26.001 79.5184 26.7881 80.614 26.7881C81.9577 26.7881 82.7904 25.9548 82.7904 24.386V23.7965H82.7279C82.3272 24.2936 81.5552 24.7278 80.5809 24.7278C78.5423 24.7278 76.6746 22.9428 76.6746 20.646C76.6746 18.3325 78.5423 16.5327 80.5809 16.5327C81.5533 16.5327 82.3254 16.967 82.7279 17.4492H82.7904V16.7822H84.4908V16.7803ZM82.9173 20.646C82.9173 19.2028 81.9596 18.1477 80.7408 18.1477C79.5055 18.1477 78.4706 19.2028 78.4706 20.646C78.4706 22.0743 79.5055 23.1147 80.7408 23.1147C81.9596 23.1147 82.9173 22.0743 82.9173 20.646Z" fill="white"/>
<path d="M87.2941 12.4675V24.4784H85.5478V12.4675H87.2941Z" fill="white"/>
<path d="M94.0993 21.9801L95.489 22.9114C95.0404 23.5785 93.9596 24.7278 92.0919 24.7278C89.7757 24.7278 88.046 22.928 88.046 20.6293C88.046 18.1921 89.7904 16.5309 91.8915 16.5309C94.0074 16.5309 95.0423 18.2235 95.3805 19.1382L95.5662 19.6038L90.1158 21.8729C90.5331 22.6952 91.182 23.1147 92.0919 23.1147C93.0037 23.1147 93.636 22.6638 94.0993 21.9801ZM89.8217 20.5055L93.4651 18.9848C93.2647 18.4729 92.6618 18.1163 91.9522 18.1163C91.0423 18.1163 89.7757 18.9238 89.8217 20.5055V20.5055Z" fill="white"/>
<path d="M52.421 19.565V17.8262H58.25C58.307 18.1292 58.3364 18.4877 58.3364 18.8758C58.3364 20.1803 57.9816 21.7935 56.8382 22.9428C55.7261 24.107 54.3051 24.7278 52.4228 24.7278C48.9338 24.7278 46 21.8711 46 18.3639C46 14.8567 48.9338 12 52.4228 12C54.3529 12 55.7279 12.7613 56.761 13.7536L55.5404 14.9805C54.7996 14.2821 53.796 13.7388 52.421 13.7388C49.8732 13.7388 47.8805 15.8028 47.8805 18.3639C47.8805 20.925 49.8732 22.989 52.421 22.989C54.0735 22.989 55.0147 22.322 55.6176 21.7159C56.1066 21.2243 56.4283 20.5222 56.5551 19.5632L52.421 19.565V19.565Z" fill="white"/>
</svg>
