<svg width="111" height="37" viewBox="0 0 111 37" fill="none" xmlns="http://www.w3.org/2000/svg">
<rect width="111" height="37" rx="3" fill="#00B67A"/>
<path d="M38.0069 14H45.9047V15.4615H42.7993V23.6776H41.0916V15.4615H38V14H38.0069ZM45.5673 16.6704H47.027V18.0226H47.0546C47.1028 17.8314 47.1923 17.647 47.3231 17.4694C47.4539 17.2919 47.6123 17.1211 47.7982 16.9777C47.9841 16.8275 48.1907 16.7114 48.4179 16.6157C48.6451 16.527 48.8792 16.4792 49.1133 16.4792C49.2924 16.4792 49.4232 16.486 49.4921 16.4928C49.5609 16.4996 49.6298 16.5133 49.7055 16.5201V18.009C49.5953 17.9885 49.4852 17.9748 49.3681 17.9612C49.2511 17.9475 49.1409 17.9407 49.0307 17.9407C48.7691 17.9407 48.5212 17.9953 48.2871 18.0978C48.053 18.2002 47.8533 18.3573 47.6811 18.5554C47.509 18.7602 47.3713 19.0061 47.268 19.3066C47.1647 19.6071 47.1165 19.9486 47.1165 20.3379V23.6707H45.5604V16.6704H45.5673ZM56.8596 23.6776H55.331V22.7009H55.3035C55.1107 23.0561 54.8284 23.3361 54.4497 23.5478C54.071 23.7595 53.6854 23.8688 53.2929 23.8688C52.3633 23.8688 51.6886 23.6434 51.2754 23.1858C50.8623 22.7283 50.6557 22.0385 50.6557 21.1165V16.6704H52.2119V20.9662C52.2119 21.5809 52.3289 22.018 52.5699 22.2707C52.804 22.5234 53.1414 22.6531 53.5683 22.6531C53.8988 22.6531 54.1674 22.6053 54.3877 22.5029C54.608 22.4004 54.7871 22.2707 54.9179 22.0999C55.0556 21.936 55.152 21.7311 55.214 21.4989C55.2759 21.2667 55.3035 21.014 55.3035 20.7408V16.6772H56.8596V23.6776ZM59.5106 21.4306C59.5588 21.8814 59.7309 22.1955 60.027 22.3799C60.33 22.5575 60.688 22.6531 61.108 22.6531C61.2526 22.6531 61.4179 22.6395 61.6038 22.619C61.7897 22.5985 61.9687 22.5507 62.1271 22.4892C62.2924 22.4277 62.4232 22.3321 62.5334 22.2092C62.6367 22.0863 62.6848 21.9292 62.678 21.7311C62.6711 21.5331 62.5953 21.3692 62.4576 21.2462C62.3199 21.1165 62.1478 21.0208 61.9343 20.9389C61.7209 20.8638 61.4799 20.7955 61.2044 20.7408C60.929 20.6862 60.6536 20.6247 60.3713 20.5633C60.0821 20.5018 59.7998 20.4198 59.5312 20.3311C59.2627 20.2423 59.0217 20.1193 58.8083 19.9623C58.5948 19.812 58.4227 19.6139 58.2987 19.3749C58.1679 19.1359 58.1059 18.8422 58.1059 18.4871C58.1059 18.1046 58.2023 17.7904 58.3882 17.5309C58.5742 17.2714 58.8151 17.0665 59.0975 16.9094C59.3867 16.7523 59.7034 16.6431 60.0546 16.5748C60.4057 16.5133 60.7431 16.4792 61.0598 16.4792C61.4248 16.4792 61.776 16.5201 62.1065 16.5953C62.437 16.6704 62.7399 16.7933 63.0085 16.9709C63.277 17.1416 63.4973 17.367 63.6764 17.6402C63.8554 17.9134 63.9656 18.248 64.0138 18.6373H62.3888C62.313 18.2685 62.1478 18.0158 61.8792 17.8929C61.6107 17.7631 61.3008 17.7017 60.9566 17.7017C60.8464 17.7017 60.7156 17.7085 60.5641 17.729C60.4126 17.7495 60.2749 17.7836 60.1372 17.8314C60.0064 17.8792 59.8962 17.9543 59.7998 18.05C59.7103 18.1456 59.6621 18.2685 59.6621 18.4256C59.6621 18.6168 59.7309 18.7671 59.8618 18.8832C59.9926 18.9993 60.1647 19.0949 60.3782 19.1769C60.5916 19.252 60.8326 19.3203 61.108 19.3749C61.3835 19.4295 61.6658 19.491 61.955 19.5525C62.2373 19.6139 62.5127 19.6959 62.7881 19.7847C63.0636 19.8735 63.3046 19.9964 63.518 20.1535C63.7315 20.3106 63.9036 20.5018 64.0344 20.734C64.1653 20.9662 64.2341 21.2599 64.2341 21.6014C64.2341 22.018 64.1377 22.3663 63.9449 22.66C63.7521 22.9468 63.5042 23.1858 63.2013 23.3634C62.8983 23.541 62.554 23.6776 62.1822 23.7595C61.8104 23.8415 61.4386 23.8825 61.0736 23.8825C60.6261 23.8825 60.2129 23.8347 59.8342 23.7322C59.4555 23.6298 59.125 23.4795 58.8496 23.2815C58.5742 23.0766 58.3538 22.8239 58.1954 22.5234C58.0371 22.2229 57.9544 21.8609 57.9407 21.4443H59.5106V21.4306ZM64.6472 16.6704H65.8247V14.5669H67.3808V16.6704H68.7855V17.8246H67.3808V21.5672C67.3808 21.7311 67.3877 21.8677 67.4015 21.9907C67.4152 22.1068 67.4497 22.2092 67.4979 22.2912C67.5461 22.3731 67.6218 22.4346 67.7251 22.4756C67.8284 22.5165 67.9592 22.537 68.1382 22.537C68.2484 22.537 68.3586 22.537 68.4687 22.5302C68.5789 22.5234 68.6891 22.5097 68.7993 22.4824V23.6776C68.6271 23.6981 68.455 23.7117 68.2966 23.7322C68.1314 23.7527 67.9661 23.7595 67.794 23.7595C67.3808 23.7595 67.0503 23.7185 66.8024 23.6434C66.5546 23.5683 66.3549 23.4522 66.2172 23.3019C66.0726 23.1517 65.983 22.9673 65.928 22.7419C65.8798 22.5165 65.8453 22.257 65.8385 21.9702V17.8382H64.661V16.6704H64.6472ZM69.8872 16.6704H71.3607V17.6197H71.3882C71.6086 17.2099 71.9115 16.9231 72.304 16.7455C72.6965 16.5679 73.1165 16.4792 73.5779 16.4792C74.1356 16.4792 74.6176 16.5748 75.0307 16.7728C75.4439 16.9641 75.7881 17.2304 76.0636 17.5719C76.339 17.9134 76.5387 18.3095 76.6764 18.7602C76.8141 19.211 76.8829 19.6959 76.8829 20.2081C76.8829 20.6794 76.821 21.137 76.697 21.574C76.5731 22.018 76.3872 22.4073 76.1393 22.7487C75.8914 23.0902 75.5747 23.3566 75.1891 23.5615C74.8035 23.7664 74.3559 23.8688 73.8326 23.8688C73.6054 23.8688 73.3782 23.8483 73.1509 23.8073C72.9237 23.7664 72.7034 23.6981 72.4968 23.6093C72.2902 23.5205 72.0906 23.4044 71.9184 23.261C71.7394 23.1175 71.5948 22.9536 71.4709 22.7692H71.4433V26.266H69.8872V16.6704V16.6704ZM75.3268 20.1808C75.3268 19.8666 75.2855 19.5593 75.2029 19.2588C75.1202 18.9583 74.9963 18.6988 74.831 18.4666C74.6658 18.2344 74.4592 18.05 74.2182 17.9134C73.9703 17.7768 73.688 17.7017 73.3713 17.7017C72.7172 17.7017 72.2214 17.927 71.8909 18.3778C71.5604 18.8285 71.3951 19.4295 71.3951 20.1808C71.3951 20.5359 71.4364 20.8638 71.526 21.1643C71.6155 21.4648 71.7394 21.7243 71.9184 21.9428C72.0906 22.1614 72.2971 22.3321 72.5381 22.4551C72.7791 22.5848 73.0614 22.6463 73.3782 22.6463C73.7362 22.6463 74.0323 22.5712 74.2802 22.4277C74.5281 22.2843 74.7277 22.0931 74.8861 21.8677C75.0445 21.6355 75.1615 21.376 75.2304 21.0823C75.2924 20.7886 75.3268 20.4881 75.3268 20.1808V20.1808ZM78.0741 14H79.6303V15.4615H78.0741V14ZM78.0741 16.6704H79.6303V23.6776H78.0741V16.6704ZM81.0212 14H82.5773V23.6776H81.0212V14ZM87.349 23.8688C86.7844 23.8688 86.2818 23.7732 85.8411 23.5888C85.4004 23.4044 85.0286 23.1449 84.7187 22.8239C84.4158 22.496 84.1817 22.1068 84.0233 21.656C83.8649 21.2052 83.7823 20.7067 83.7823 20.1671C83.7823 19.6344 83.8649 19.1427 84.0233 18.6919C84.1817 18.2412 84.4158 17.8519 84.7187 17.5241C85.0217 17.1963 85.4004 16.9436 85.8411 16.7592C86.2818 16.5748 86.7844 16.4792 87.349 16.4792C87.9137 16.4792 88.4163 16.5748 88.857 16.7592C89.2977 16.9436 89.6695 17.2031 89.9793 17.5241C90.2823 17.8519 90.5164 18.2412 90.6748 18.6919C90.8332 19.1427 90.9158 19.6344 90.9158 20.1671C90.9158 20.7067 90.8332 21.2052 90.6748 21.656C90.5164 22.1068 90.2823 22.496 89.9793 22.8239C89.6764 23.1517 89.2977 23.4044 88.857 23.5888C88.4163 23.7732 87.9137 23.8688 87.349 23.8688V23.8688ZM87.349 22.6463C87.6933 22.6463 87.9963 22.5712 88.2511 22.4277C88.5058 22.2843 88.7124 22.0931 88.8776 21.8609C89.0429 21.6287 89.16 21.3623 89.2426 21.0687C89.3183 20.775 89.3596 20.4745 89.3596 20.1671C89.3596 19.8666 89.3183 19.573 89.2426 19.2725C89.1668 18.972 89.0429 18.7124 88.8776 18.4802C88.7124 18.248 88.5058 18.0636 88.2511 17.9202C87.9963 17.7768 87.6933 17.7017 87.349 17.7017C87.0048 17.7017 86.7018 17.7768 86.447 17.9202C86.1923 18.0636 85.9857 18.2549 85.8204 18.4802C85.6552 18.7124 85.5381 18.972 85.4555 19.2725C85.3798 19.573 85.3384 19.8666 85.3384 20.1671C85.3384 20.4745 85.3798 20.775 85.4555 21.0687C85.5312 21.3623 85.6552 21.6287 85.8204 21.8609C85.9857 22.0931 86.1923 22.2843 86.447 22.4277C86.7018 22.578 87.0048 22.6463 87.349 22.6463V22.6463ZM91.3702 16.6704H92.5477V14.5669H94.1038V16.6704H95.5085V17.8246H94.1038V21.5672C94.1038 21.7311 94.1107 21.8677 94.1245 21.9907C94.1382 22.1068 94.1727 22.2092 94.2209 22.2912C94.2691 22.3731 94.3448 22.4346 94.4481 22.4756C94.5514 22.5165 94.6822 22.537 94.8612 22.537C94.9714 22.537 95.0816 22.537 95.1917 22.5302C95.3019 22.5234 95.4121 22.5097 95.5222 22.4824V23.6776C95.3501 23.6981 95.178 23.7117 95.0196 23.7322C94.8543 23.7527 94.6891 23.7595 94.5169 23.7595C94.1038 23.7595 93.7733 23.7185 93.5254 23.6434C93.2775 23.5683 93.0779 23.4522 92.9401 23.3019C92.7955 23.1517 92.706 22.9673 92.651 22.7419C92.6028 22.5165 92.5683 22.257 92.5614 21.9702V17.8382H91.384V16.6704H91.3702Z" fill="white"/>
<path d="M34.6806 15.734H27.5471L25.3437 9L23.1335 15.734L16 15.7272L21.777 19.8932L19.5667 26.6204L25.3437 22.4612L31.1139 26.6204L28.9105 19.8932L34.6806 15.734Z" fill="white"/>
</svg>
