<svg width="111" height="37" viewBox="0 0 111 37" fill="none" xmlns="http://www.w3.org/2000/svg">
<path d="M108 0H3C1.34315 0 0 1.34315 0 3V34C0 35.6569 1.34315 37 3 37H108C109.657 37 111 35.6569 111 34V3C111 1.34315 109.657 0 108 0Z" fill="#00B67A"/>
<path d="M38.0077 13H46.7949V14.6681H43.3398V24.0457H41.4398V14.6681H38V13H38.0077ZM46.4195 16.0479H48.0436V17.5913H48.0743C48.1279 17.373 48.2275 17.1626 48.373 16.9599C48.5185 16.7573 48.6948 16.5623 48.9016 16.3986C49.1084 16.2272 49.3383 16.0947 49.5911 15.9855C49.8439 15.8842 50.1043 15.8297 50.3648 15.8297C50.5641 15.8297 50.7096 15.8374 50.7863 15.8452C50.8628 15.853 50.9395 15.8686 51.0237 15.8764V17.5757C50.9011 17.5523 50.7786 17.5367 50.6483 17.5212C50.5181 17.5055 50.3955 17.4978 50.2729 17.4978C49.9819 17.4978 49.706 17.5601 49.4456 17.6771C49.1851 17.794 48.9629 17.9733 48.7713 18.1994C48.5798 18.4331 48.4266 18.7138 48.3117 19.0568C48.1968 19.3998 48.1431 19.7895 48.1431 20.2339V24.0378H46.4118V16.0479H46.4195ZM58.9835 24.0457H57.2827V22.9309H57.2521C57.0376 23.3363 56.7235 23.6559 56.3022 23.8975C55.8808 24.1392 55.4518 24.2639 55.0151 24.2639C53.9808 24.2639 53.2301 24.0067 52.7704 23.4844C52.3108 22.9622 52.0809 22.1749 52.0809 21.1225V16.0479H53.8124V20.951C53.8124 21.6526 53.9425 22.1515 54.2107 22.4399C54.4711 22.7283 54.8465 22.8764 55.3215 22.8764C55.6892 22.8764 55.9881 22.8218 56.2332 22.7049C56.4783 22.5879 56.6776 22.4399 56.8231 22.245C56.9763 22.0579 57.0836 21.824 57.1525 21.559C57.2214 21.294 57.2521 21.0055 57.2521 20.6937V16.0557H58.9835V24.0457ZM61.933 21.481C61.9866 21.9956 62.1781 22.3541 62.5075 22.5645C62.8447 22.7672 63.243 22.8764 63.7103 22.8764C63.8712 22.8764 64.0551 22.8608 64.2619 22.8374C64.4688 22.814 64.6679 22.7595 64.8441 22.6893C65.0281 22.6191 65.1736 22.51 65.2962 22.3697C65.4111 22.2294 65.4647 22.0501 65.4571 21.824C65.4494 21.598 65.3651 21.411 65.2119 21.2706C65.0587 21.1225 64.8672 21.0133 64.6296 20.9198C64.3922 20.8341 64.1241 20.7562 63.8175 20.6937C63.5111 20.6314 63.2047 20.5612 62.8906 20.4911C62.5689 20.4209 62.2548 20.3273 61.9559 20.2261C61.6572 20.1248 61.389 19.9844 61.1516 19.8052C60.9141 19.6336 60.7226 19.4075 60.5846 19.1347C60.4391 18.8619 60.3701 18.5267 60.3701 18.1214C60.3701 17.6849 60.4774 17.3262 60.6842 17.03C60.8911 16.7339 61.1592 16.5 61.4734 16.3207C61.7951 16.1414 62.1475 16.0167 62.5383 15.9388C62.9289 15.8686 63.3043 15.8297 63.6567 15.8297C64.0628 15.8297 64.4535 15.8764 64.8212 15.9622C65.1889 16.0479 65.526 16.1882 65.8248 16.3909C66.1235 16.5857 66.3686 16.843 66.5679 17.1548C66.7671 17.4666 66.8897 17.8485 66.9433 18.2929H65.1353C65.051 17.8719 64.8672 17.5835 64.5683 17.4432C64.2696 17.2951 63.9248 17.225 63.5418 17.225C63.4192 17.225 63.2737 17.2328 63.1051 17.2562C62.9366 17.2796 62.7834 17.3185 62.6302 17.373C62.4846 17.4276 62.362 17.5133 62.2548 17.6225C62.1552 17.7316 62.1016 17.8719 62.1016 18.0512C62.1016 18.2695 62.1781 18.441 62.3237 18.5735C62.4693 18.706 62.6608 18.8151 62.8983 18.9087C63.1357 18.9945 63.4039 19.0724 63.7103 19.1347C64.0168 19.197 64.3309 19.2672 64.6527 19.3374C64.9668 19.4075 65.2732 19.5011 65.5796 19.6025C65.8861 19.7038 66.1543 19.8441 66.3917 20.0234C66.6292 20.2027 66.8207 20.4209 66.9662 20.686C67.1119 20.951 67.1884 21.2862 67.1884 21.676C67.1884 22.1515 67.0812 22.549 66.8667 22.8842C66.6521 23.2116 66.3763 23.4844 66.0393 23.6871C65.7022 23.8898 65.3191 24.0457 64.9055 24.1392C64.4918 24.2328 64.0781 24.2796 63.672 24.2796C63.1741 24.2796 62.7144 24.225 62.293 24.108C61.8717 23.9911 61.504 23.8196 61.1976 23.5936C60.8911 23.3597 60.6459 23.0713 60.4697 22.7283C60.2936 22.3853 60.2015 21.9722 60.1863 21.4967H61.933V21.481ZM67.648 16.0479H68.9581V13.647H70.6895V16.0479H72.2524V17.3653H70.6895V21.6369C70.6895 21.824 70.6972 21.9799 70.7125 22.1203C70.7278 22.2528 70.7661 22.3697 70.8198 22.4633C70.8734 22.5568 70.9576 22.627 71.0726 22.6738C71.1875 22.7204 71.333 22.7438 71.5322 22.7438C71.6548 22.7438 71.7774 22.7438 71.8999 22.7361C72.0225 22.7283 72.1451 22.7127 72.2677 22.6815V24.0457C72.0761 24.0691 71.8847 24.0846 71.7084 24.108C71.5246 24.1314 71.3407 24.1392 71.1492 24.1392C70.6895 24.1392 70.3218 24.0924 70.0459 24.0067C69.7702 23.9209 69.5481 23.7884 69.3949 23.6169C69.234 23.4454 69.1343 23.235 69.0731 22.9777C69.0195 22.7204 68.9811 22.4243 68.9735 22.0969V17.3808H67.6634V16.0479H67.648ZM73.4781 16.0479H75.1176V17.1314H75.1482C75.3934 16.6637 75.7304 16.3363 76.1671 16.1336C76.6038 15.9309 77.0711 15.8297 77.5845 15.8297C78.205 15.8297 78.7413 15.9388 79.2009 16.1648C79.6606 16.3831 80.0436 16.6871 80.3501 17.0768C80.6565 17.4666 80.8787 17.9187 81.0319 18.4331C81.1851 18.9477 81.2617 19.5011 81.2617 20.0857C81.2617 20.6236 81.1928 21.1459 81.0548 21.6447C80.917 22.1515 80.7101 22.5958 80.4343 22.9855C80.1585 23.3752 79.8061 23.6793 79.3771 23.9132C78.9481 24.147 78.4501 24.2639 77.8679 24.2639C77.6151 24.2639 77.3623 24.2405 77.1094 24.1937C76.8566 24.147 76.6115 24.0691 76.3816 23.9677C76.1518 23.8664 75.9297 23.7339 75.7381 23.5702C75.5389 23.4064 75.378 23.2193 75.2402 23.0089H75.2095V27H73.4781V16.0479ZM79.5303 20.0546C79.5303 19.6959 79.4844 19.3452 79.3925 19.0022C79.3005 18.6592 79.1626 18.3631 78.9787 18.098C78.7949 17.833 78.565 17.6225 78.2969 17.4666C78.0211 17.3107 77.707 17.225 77.3546 17.225C76.6268 17.225 76.0752 17.4821 75.7075 17.9967C75.3398 18.5111 75.1559 19.197 75.1559 20.0546C75.1559 20.4599 75.2018 20.8341 75.3015 21.1771C75.4011 21.5201 75.5389 21.8163 75.7381 22.0656C75.9297 22.3151 76.1594 22.51 76.4276 22.6504C76.6957 22.7984 77.0098 22.8686 77.3623 22.8686C77.7606 22.8686 78.09 22.7829 78.3659 22.6191C78.6417 22.4554 78.8638 22.2372 79.04 21.9799C79.2162 21.7149 79.3464 21.4187 79.4231 21.0835C79.492 20.7483 79.5303 20.4053 79.5303 20.0546ZM82.587 13H84.3185V14.6681H82.587V13ZM82.587 16.0479H84.3185V24.0457H82.587V16.0479ZM85.866 13H87.5973V24.0457H85.866V13ZM92.9064 24.2639C92.2782 24.2639 91.719 24.1548 91.2287 23.9443C90.7383 23.7339 90.3247 23.4377 89.9799 23.0713C89.6429 22.697 89.3824 22.2528 89.2062 21.7383C89.0299 21.2238 88.938 20.6548 88.938 20.0389C88.938 19.4309 89.0299 18.8697 89.2062 18.3552C89.3824 17.8408 89.6429 17.3964 89.9799 17.0223C90.317 16.6481 90.7383 16.3597 91.2287 16.1493C91.719 15.9388 92.2782 15.8297 92.9064 15.8297C93.5347 15.8297 94.0939 15.9388 94.5842 16.1493C95.0745 16.3597 95.4882 16.6559 95.8329 17.0223C96.17 17.3964 96.4305 17.8408 96.6067 18.3552C96.783 18.8697 96.8749 19.4309 96.8749 20.0389C96.8749 20.6548 96.783 21.2238 96.6067 21.7383C96.4305 22.2528 96.17 22.697 95.8329 23.0713C95.4959 23.4454 95.0745 23.7339 94.5842 23.9443C94.0939 24.1548 93.5347 24.2639 92.9064 24.2639ZM92.9064 22.8686C93.2895 22.8686 93.6266 22.7829 93.9101 22.6191C94.1935 22.4554 94.4233 22.2372 94.6071 21.9722C94.791 21.7071 94.9213 21.4031 95.0132 21.068C95.0975 20.7328 95.1434 20.3898 95.1434 20.0389C95.1434 19.6959 95.0975 19.3608 95.0132 19.0179C94.9289 18.6749 94.791 18.3786 94.6071 18.1135C94.4233 17.8485 94.1935 17.6381 93.9101 17.4744C93.6266 17.3107 93.2895 17.225 92.9064 17.225C92.5234 17.225 92.1863 17.3107 91.9028 17.4744C91.6194 17.6381 91.3896 17.8564 91.2056 18.1135C91.0218 18.3786 90.8916 18.6749 90.7996 19.0179C90.7154 19.3608 90.6694 19.6959 90.6694 20.0389C90.6694 20.3898 90.7154 20.7328 90.7996 21.068C90.8839 21.4031 91.0218 21.7071 91.2056 21.9722C91.3896 22.2372 91.6194 22.4554 91.9028 22.6191C92.1863 22.7906 92.5234 22.8686 92.9064 22.8686ZM97.3804 16.0479H98.6905V13.647H100.422V16.0479H101.985V17.3653H100.422V21.6369C100.422 21.824 100.43 21.9799 100.445 22.1203C100.46 22.2528 100.499 22.3697 100.552 22.4633C100.606 22.5568 100.69 22.627 100.805 22.6738C100.92 22.7204 101.065 22.7438 101.265 22.7438C101.387 22.7438 101.51 22.7438 101.632 22.7361C101.755 22.7283 101.878 22.7127 102 22.6815V24.0457C101.809 24.0691 101.617 24.0846 101.441 24.108C101.257 24.1314 101.073 24.1392 100.881 24.1392C100.422 24.1392 100.054 24.0924 99.7783 24.0067C99.5025 23.9209 99.2804 23.7884 99.1271 23.6169C98.9662 23.4454 98.8667 23.235 98.8055 22.9777C98.7518 22.7204 98.7135 22.4243 98.7058 22.0969V17.3808H97.3958V16.0479H97.3804Z" fill="white"/>
<path d="M14.253 31.9973L17.016 21.685L8 15.8669L18.722 15.3173L21.467 5L25.337 14.9758L36.059 14.4262L27.719 21.1303L31.589 31.1062L22.574 25.288L14.253 31.9973Z" fill="white"/>
<path d="M24.613 26.5994L22.574 25.288L27.714 21.1491L24.613 26.5994Z" fill="#727272"/>
</svg>
