<svg width="269" height="55" viewBox="0 0 269 55" fill="none" xmlns="http://www.w3.org/2000/svg">
<g clip-path="url(#clip0_1_54)">
<path d="M265 0H4C1.79086 0 0 1.79086 0 4V50.2C0 52.4091 1.79086 54.2 4 54.2H265C267.209 54.2 269 52.4091 269 50.2V4C269 1.79086 267.209 0 265 0Z" fill="#F56400"/>
<path d="M28.0597 26.2836H26.903C26.8346 25.9508 26.7149 25.6586 26.5439 25.4067C26.376 25.1549 26.1707 24.9434 25.9282 24.7724C25.6888 24.5982 25.423 24.4676 25.1306 24.3806C24.8384 24.2935 24.5337 24.2499 24.2165 24.2499C23.6381 24.2499 23.1142 24.3962 22.6446 24.6884C22.1782 24.9808 21.8066 25.4113 21.5298 25.9804C21.2562 26.5494 21.1194 27.2475 21.1194 28.0746C21.1194 28.9017 21.2562 29.5998 21.5298 30.1688C21.8066 30.7378 22.1782 31.1685 22.6446 31.4608C23.1142 31.7531 23.6381 31.8992 24.2165 31.8992C24.5337 31.8992 24.8384 31.8557 25.1306 31.7687C25.423 31.6815 25.6888 31.5525 25.9282 31.3815C26.1707 31.2074 26.376 30.9944 26.5439 30.7425C26.7149 30.4875 26.8346 30.1953 26.903 29.8656H28.0597C27.9726 30.3538 27.8141 30.7907 27.584 31.1763C27.3539 31.5618 27.0678 31.8899 26.7258 32.1604C26.3837 32.4278 25.9997 32.6315 25.5737 32.7715C25.1509 32.9113 24.6984 32.9813 24.2165 32.9813C23.4018 32.9813 22.6772 32.7823 22.043 32.3843C21.4086 31.9863 20.9096 31.4204 20.5458 30.6865C20.1819 29.9527 20 29.082 20 28.0746C20 27.0671 20.1819 26.1966 20.5458 25.4627C20.9096 24.7288 21.4086 24.1629 22.043 23.765C22.6772 23.3669 23.4018 23.1679 24.2165 23.1679C24.6984 23.1679 25.1509 23.2378 25.5737 23.3778C25.9997 23.5177 26.3837 23.7229 26.7258 23.9935C27.0678 24.2609 27.3539 24.5874 27.584 24.973C27.8141 25.3554 27.9726 25.7922 28.0597 26.2836ZM30.8804 28.541V32.8507H29.7796V23.2985H30.8804V26.806H30.9736C31.1415 26.4359 31.3935 26.142 31.7293 25.9245C32.0681 25.7037 32.5191 25.5933 33.0819 25.5933C33.57 25.5933 33.9976 25.6912 34.3644 25.8871C34.7314 26.0799 35.0159 26.3768 35.2181 26.778C35.4233 27.1759 35.5258 27.6828 35.5258 28.2985V32.8507H34.4251V28.3731C34.4251 27.8041 34.2774 27.3641 33.982 27.0531C33.6898 26.7391 33.2839 26.582 32.7647 26.582C32.404 26.582 32.0806 26.6582 31.7945 26.8106C31.5116 26.9629 31.2877 27.1853 31.1229 27.4776C30.9612 27.7699 30.8804 28.1243 30.8804 28.541ZM40.5434 33C39.853 33 39.2576 32.8476 38.757 32.5429C38.2594 32.235 37.8755 31.806 37.6049 31.2556C37.3375 30.7021 37.2037 30.0585 37.2037 29.3246C37.2037 28.5908 37.3375 27.944 37.6049 27.3843C37.8755 26.8215 38.2516 26.3831 38.7337 26.069C39.2188 25.7519 39.7846 25.5933 40.4314 25.5933C40.8045 25.5933 41.173 25.6554 41.5369 25.7799C41.9006 25.9042 42.2318 26.1064 42.5302 26.3862C42.8288 26.6629 43.0667 27.0298 43.2439 27.4869C43.4211 27.944 43.5097 28.5068 43.5097 29.1753V29.6418H37.9874V28.6903H42.3904C42.3904 28.286 42.3095 27.9254 42.1478 27.6082C41.9892 27.2911 41.7622 27.0408 41.4668 26.8572C41.1746 26.6738 40.8294 26.582 40.4314 26.582C39.9929 26.582 39.6137 26.691 39.2933 26.9085C38.9762 27.1231 38.7321 27.4029 38.5611 27.7482C38.3901 28.0933 38.3045 28.4633 38.3045 28.8582V29.4925C38.3045 30.0335 38.3979 30.4922 38.5844 30.8684C38.7741 31.2415 39.0369 31.5261 39.3727 31.722C39.7085 31.9148 40.0986 32.0112 40.5434 32.0112C40.8325 32.0112 41.0937 31.9707 41.3269 31.8899C41.5632 31.806 41.7669 31.6815 41.9379 31.5167C42.109 31.3488 42.2411 31.1405 42.3343 30.8917L43.3978 31.1903C43.2859 31.551 43.0978 31.8682 42.8334 32.1418C42.5691 32.4122 42.2426 32.6237 41.8539 32.7761C41.4653 32.9254 41.0284 33 40.5434 33ZM48.0946 33C47.423 33 46.8446 32.8414 46.3595 32.5242C45.8744 32.207 45.5013 31.7702 45.2402 31.2136C44.9789 30.657 44.8483 30.0211 44.8483 29.306C44.8483 28.5783 44.9821 27.9362 45.2495 27.3796C45.52 26.82 45.8962 26.3831 46.3783 26.069C46.8632 25.7519 47.4292 25.5933 48.076 25.5933C48.5797 25.5933 49.0337 25.6865 49.4379 25.8731C49.8421 26.0597 50.1733 26.3209 50.4314 26.6567C50.6895 26.9925 50.8496 27.3843 50.9118 27.8321H49.811C49.7271 27.5056 49.5406 27.2164 49.2514 26.9646C48.9653 26.7096 48.5797 26.582 48.0946 26.582C47.6655 26.582 47.2892 26.694 46.9659 26.9178C46.6457 27.1386 46.3953 27.4512 46.215 27.8554C46.0378 28.2566 45.9491 28.7276 45.9491 29.2687C45.9491 29.8222 46.0362 30.3041 46.2103 30.7145C46.3876 31.125 46.6362 31.4437 46.9566 31.6707C47.2799 31.8977 47.6593 32.0112 48.0946 32.0112C48.3807 32.0112 48.6403 31.9614 48.8736 31.8619C49.1067 31.7624 49.3041 31.6194 49.4659 31.4328C49.6276 31.2462 49.7426 31.0223 49.811 30.7612H50.9118C50.8496 31.1841 50.6957 31.565 50.45 31.9038C50.2074 32.2397 49.8857 32.5071 49.4845 32.7061C49.0865 32.902 48.6232 33 48.0946 33ZM53.5471 30.2387L53.5283 28.8768H53.7523L56.8866 25.6865H58.2485L54.909 29.0634H54.8157L53.5471 30.2387ZM52.5209 32.8507V23.2985H53.6216V32.8507H52.5209ZM57.0732 32.8507L54.2746 29.306L55.0582 28.541L58.4724 32.8507H57.0732ZM63.5085 32.8507V23.2985H66.7361C67.4824 23.2985 68.0949 23.426 68.5738 23.681C69.0526 23.9329 69.4071 24.2795 69.6372 24.721C69.8673 25.1627 69.9823 25.6648 69.9823 26.2276C69.9823 26.7904 69.8673 27.2894 69.6372 27.7248C69.4071 28.1601 69.0541 28.5022 68.5785 28.751C68.1027 28.9966 67.4948 29.1194 66.7548 29.1194H64.1428V28.0746H66.7175C67.2274 28.0746 67.6378 28 67.9488 27.8507C68.2628 27.7015 68.4898 27.4901 68.6298 27.2164C68.7728 26.9396 68.8443 26.6101 68.8443 26.2276C68.8443 25.8451 68.7728 25.5108 68.6298 25.2248C68.4868 24.9387 68.2582 24.718 67.9441 24.5625C67.6301 24.4039 67.2149 24.3246 66.6987 24.3246H64.6652V32.8507H63.5085ZM68.0047 28.5596L70.3555 32.8507H69.0122L66.6987 28.5596H68.0047ZM74.6873 33C73.997 33 73.4016 32.8476 72.901 32.5429C72.4035 32.235 72.0194 31.806 71.7489 31.2556C71.4815 30.7021 71.3478 30.0585 71.3478 29.3246C71.3478 28.5908 71.4815 27.944 71.7489 27.3843C72.0194 26.8215 72.3956 26.3831 72.8776 26.069C73.3627 25.7519 73.9286 25.5933 74.5754 25.5933C74.9485 25.5933 75.317 25.6554 75.6808 25.7799C76.0446 25.9042 76.3757 26.1064 76.6742 26.3862C76.9728 26.6629 77.2106 27.0298 77.3878 27.4869C77.5652 27.944 77.6537 28.5068 77.6537 29.1753V29.6418H72.1314V28.6903H76.5343C76.5343 28.286 76.4535 27.9254 76.2918 27.6082C76.1332 27.2911 75.9062 27.0408 75.6108 26.8572C75.3185 26.6738 74.9734 26.582 74.5754 26.582C74.137 26.582 73.7576 26.691 73.4374 26.9085C73.1202 27.1231 72.8761 27.4029 72.705 27.7482C72.5341 28.0933 72.4485 28.4633 72.4485 28.8582V29.4925C72.4485 30.0335 72.5419 30.4922 72.7284 30.8684C72.918 31.2415 73.1808 31.5261 73.5166 31.722C73.8524 31.9148 74.2426 32.0112 74.6873 32.0112C74.9765 32.0112 75.2377 31.9707 75.4709 31.8899C75.7072 31.806 75.9109 31.6815 76.0819 31.5167C76.2529 31.3488 76.3851 31.1405 76.4784 30.8917L77.5418 31.1903C77.4299 31.551 77.2417 31.8682 76.9774 32.1418C76.7132 32.4122 76.3867 32.6237 75.9979 32.7761C75.6093 32.9254 75.1724 33 74.6873 33ZM84.9683 25.6865L82.3191 32.8507H81.1996L78.5505 25.6865H79.7445L81.7221 31.3955H81.7967L83.7743 25.6865H84.9683ZM86.4212 32.8507V25.6865H87.5219V32.8507H86.4212ZM86.9809 24.4925C86.7664 24.4925 86.5813 24.4195 86.4259 24.2734C86.2735 24.1271 86.1973 23.9515 86.1973 23.7462C86.1973 23.541 86.2735 23.3654 86.4259 23.2192C86.5813 23.0731 86.7664 23 86.9809 23C87.1954 23 87.3789 23.0731 87.5312 23.2192C87.6868 23.3654 87.7645 23.541 87.7645 23.7462C87.7645 23.9515 87.6868 24.1271 87.5312 24.2734C87.3789 24.4195 87.1954 24.4925 86.9809 24.4925ZM92.5417 33C91.8514 33 91.256 32.8476 90.7554 32.5429C90.2578 32.235 89.8738 31.806 89.6033 31.2556C89.3359 30.7021 89.2022 30.0585 89.2022 29.3246C89.2022 28.5908 89.3359 27.944 89.6033 27.3843C89.8738 26.8215 90.25 26.3831 90.7321 26.069C91.2171 25.7519 91.783 25.5933 92.4298 25.5933C92.8029 25.5933 93.1714 25.6554 93.5352 25.7799C93.8991 25.9042 94.2302 26.1064 94.5286 26.3862C94.8272 26.6629 95.0651 27.0298 95.2423 27.4869C95.4196 27.944 95.5081 28.5068 95.5081 29.1753V29.6418H89.9858V28.6903H94.3887C94.3887 28.286 94.3079 27.9254 94.1462 27.6082C93.9876 27.2911 93.7606 27.0408 93.4652 26.8572C93.173 26.6738 92.8279 26.582 92.4298 26.582C91.9914 26.582 91.6121 26.691 91.2918 26.9085C90.9746 27.1231 90.7305 27.4029 90.5594 27.7482C90.3885 28.0933 90.3029 28.4633 90.3029 28.8582V29.4925C90.3029 30.0335 90.3963 30.4922 90.5828 30.8684C90.7724 31.2415 91.0352 31.5261 91.371 31.722C91.7068 31.9148 92.097 32.0112 92.5417 32.0112C92.8309 32.0112 93.0921 31.9707 93.3253 31.8899C93.5616 31.806 93.7653 31.6815 93.9363 31.5167C94.1074 31.3488 94.2395 31.1405 94.3328 30.8917L95.3963 31.1903C95.2843 31.551 95.0961 31.8682 94.8318 32.1418C94.5676 32.4122 94.2411 32.6237 93.8523 32.7761C93.4637 32.9254 93.0268 33 92.5417 33ZM98.8057 32.8507L96.6229 25.6865H97.7796L99.3281 31.1716H99.4028L100.933 25.6865H102.108L103.62 31.153H103.694L105.243 25.6865H106.399L104.216 32.8507H103.134L101.567 27.347H101.455L99.8877 32.8507H98.8057ZM112.928 27.2911L111.94 27.5708C111.878 27.4061 111.786 27.246 111.664 27.0905C111.547 26.9319 111.385 26.8013 111.179 26.6987C110.975 26.5961 110.712 26.5447 110.391 26.5447C109.954 26.5447 109.588 26.6459 109.296 26.8479C109.007 27.0469 108.861 27.3004 108.861 27.6082C108.861 27.8818 108.961 28.098 109.16 28.2566C109.359 28.415 109.67 28.5473 110.093 28.653L111.156 28.9141C111.797 29.0697 112.274 29.3075 112.588 29.6278C112.902 29.945 113.06 30.3538 113.06 30.8544C113.06 31.2649 112.942 31.6318 112.705 31.9552C112.472 32.2786 112.145 32.5335 111.726 32.7201C111.305 32.9066 110.817 33 110.261 33C109.53 33 108.926 32.8414 108.446 32.5242C107.968 32.207 107.665 31.7437 107.537 31.1343L108.582 30.8731C108.682 31.2587 108.87 31.5479 109.146 31.7406C109.426 31.9334 109.792 32.0298 110.242 32.0298C110.756 32.0298 111.163 31.921 111.464 31.7033C111.769 31.4826 111.921 31.2182 111.921 30.9104C111.921 30.6617 111.834 30.4534 111.66 30.2854C111.486 30.1144 111.219 29.9869 110.858 29.9029L109.663 29.6231C109.008 29.4676 108.526 29.2266 108.218 28.9001C107.913 28.5706 107.761 28.1586 107.761 27.6642C107.761 27.2599 107.874 26.9023 108.102 26.5913C108.331 26.2805 108.644 26.0363 109.039 25.8591C109.437 25.6819 109.888 25.5933 110.391 25.5933C111.101 25.5933 111.657 25.7488 112.062 26.0597C112.469 26.3706 112.758 26.781 112.928 27.2911ZM121.321 33C120.674 33 120.106 32.846 119.618 32.5382C119.133 32.2303 118.753 31.7997 118.48 31.2462C118.21 30.6927 118.075 30.046 118.075 29.306C118.075 28.5596 118.21 27.9083 118.48 27.3517C118.753 26.795 119.133 26.3628 119.618 26.055C120.106 25.7471 120.674 25.5933 121.321 25.5933C121.967 25.5933 122.534 25.7471 123.019 26.055C123.507 26.3628 123.886 26.795 124.156 27.3517C124.43 27.9083 124.567 28.5596 124.567 29.306C124.567 30.046 124.43 30.6927 124.156 31.2462C123.886 31.7997 123.507 32.2303 123.019 32.5382C122.534 32.846 121.967 33 121.321 33ZM121.321 32.0112C121.812 32.0112 122.217 31.8852 122.534 31.6334C122.85 31.3815 123.086 31.0503 123.238 30.6399C123.39 30.2294 123.467 29.7848 123.467 29.306C123.467 28.8271 123.39 28.3809 123.238 27.9674C123.086 27.5538 122.85 27.2195 122.534 26.9646C122.217 26.7096 121.812 26.582 121.321 26.582C120.83 26.582 120.425 26.7096 120.109 26.9646C119.791 27.2195 119.556 27.5538 119.404 27.9674C119.252 28.3809 119.175 28.8271 119.175 29.306C119.175 29.7848 119.252 30.2294 119.404 30.6399C119.556 31.0503 119.791 31.3815 120.109 31.6334C120.425 31.8852 120.83 32.0112 121.321 32.0112ZM127.348 28.541V32.8507H126.248V25.6865H127.31V26.806H127.404C127.572 26.4422 127.827 26.1498 128.169 25.9291C128.511 25.7052 128.952 25.5933 129.494 25.5933C129.979 25.5933 130.404 25.6927 130.767 25.8917C131.13 26.0877 131.414 26.3862 131.615 26.7873C131.818 27.1853 131.918 27.689 131.918 28.2985V32.8507H130.818V28.3731C130.818 27.8103 130.672 27.3719 130.38 27.0578C130.087 26.7406 129.687 26.582 129.177 26.582C128.825 26.582 128.511 26.6582 128.234 26.8106C127.961 26.9629 127.745 27.1853 127.586 27.4776C127.428 27.7699 127.348 28.1243 127.348 28.541Z" fill="white"/>
<path d="M156.962 12.6836V22.6052C156.962 22.6052 160.482 22.6052 162.366 22.4632C163.847 22.2056 164.119 22.0636 164.392 20.5921L164.937 18.437H166.549L166.275 23.1469L166.419 27.9722H164.794L164.392 26.088C163.989 24.747 163.445 24.4746 162.366 24.3458C161.015 24.2038 156.962 24.2038 156.962 24.2038V32.5252C156.962 34.1255 157.78 34.8091 159.664 34.8091H165.34C167.093 34.8091 168.846 34.6671 169.939 32.1256L171.406 28.9003H172.769C172.627 29.5709 171.951 35.4797 171.822 36.809C171.822 36.809 166.691 36.6802 164.535 36.6802H154.806L149 36.809V35.3508L150.884 34.9379C152.247 34.6671 152.649 34.2675 152.649 33.1958C152.649 33.1958 152.792 29.5709 152.792 23.5317C152.792 17.5073 152.649 13.8808 152.649 13.8808C152.649 12.6802 152.247 12.4095 150.884 12.1386L149 11.7422V10.2708L154.676 10.3864H165.482C167.639 10.3864 171.275 10 171.275 10C171.275 10 171.146 12.2706 171.002 17.6378H169.521L168.976 15.7535C168.444 13.3408 167.637 12.1402 166.144 12.1402H157.65C156.962 12.1419 156.962 12.2706 156.962 12.6836ZM178.835 13.7421H180.459V19.38L186.005 19.1091L185.733 21.6639L180.329 21.251V31.1859C180.329 33.9982 181.277 35.0817 182.901 35.0817C184.37 35.0817 185.46 34.2691 185.863 33.5987L186.667 34.5399C185.863 36.411 183.577 37.3522 181.407 37.3522C178.718 37.3522 176.536 35.7521 176.536 32.6689V21.3915H173.313V20.0505C176.017 19.7797 178.03 18.1662 178.835 13.7421ZM190.46 31.0423L191.537 33.597C191.939 34.6671 192.887 35.7521 195.043 35.7521C197.343 35.7521 198.29 34.5399 198.29 33.0685C198.29 28.5007 189.237 29.8433 189.237 23.6753C189.237 20.1924 192.069 18.5659 195.718 18.5659C197.343 18.5659 199.771 18.8367 200.991 19.3783C200.719 20.7192 200.576 22.4615 200.576 23.8041L199.238 23.9329L198.29 21.2494C198.017 20.5921 196.927 20.0488 195.588 20.0488C193.964 20.0488 192.341 20.7192 192.341 22.4615C192.341 26.6165 201.666 25.6867 201.666 31.8548C201.666 35.3508 198.563 37.2219 194.771 37.2219C191.939 37.2219 189.095 36.1386 189.095 36.1386C189.367 34.5382 189.237 32.7977 189.095 31.0423H190.46ZM200.993 43.9182C201.396 42.4469 201.668 40.5774 201.941 38.8221L203.422 38.6932L203.968 41.5056C204.097 42.1761 204.5 42.7177 205.579 42.7177C207.332 42.7177 209.632 41.6477 211.8 37.8923C210.839 35.6084 208.007 28.2414 205.435 22.6036C204.761 21.1206 204.631 20.9901 203.695 20.7192L203.007 20.4618V19.1076L207.072 19.2496L212.059 18.9788V20.3212L210.839 20.5921C209.891 20.7209 209.5 21.2494 209.5 21.7928C209.5 21.9347 209.5 22.0636 209.63 22.3343C209.89 23.1469 212.059 29.1729 213.683 33.1973C215.022 30.385 217.594 24.0767 217.996 23.0049C218.14 22.4632 218.269 22.3343 218.269 21.9347C218.269 21.251 217.866 20.8514 216.931 20.5938L215.969 20.3212V18.9803L219.762 19.1091L223.268 18.9803V20.3212L222.593 20.8497C221.243 21.3915 221.1 21.5202 220.566 22.6036L214.631 36.4078C211.111 44.3294 207.462 45 204.902 45C203.279 45.0017 202.059 44.5888 200.993 43.9182Z" fill="white"/>
</g>
<defs>
<clipPath id="clip0_1_54">
<rect width="269" height="55" fill="white"/>
</clipPath>
</defs>
</svg>
