<svg width="269" height="55" viewBox="0 0 269 55" fill="none" xmlns="http://www.w3.org/2000/svg">
<path d="M265 0H4C1.79086 0 0 1.79086 0 4V50.2C0 52.4091 1.79086 54.2 4 54.2H265C267.209 54.2 269 52.4091 269 50.2V4C269 1.79086 267.209 0 265 0Z" fill="black"/>
<path d="M28.0596 26.2836H26.9029C26.8345 25.9508 26.7149 25.6586 26.5438 25.4067C26.3759 25.1549 26.1707 24.9434 25.9282 24.7724C25.6888 24.5982 25.4229 24.4676 25.1306 24.3806C24.8383 24.2935 24.5336 24.2499 24.2164 24.2499C23.6381 24.2499 23.1141 24.3962 22.6446 24.6884C22.1782 24.9808 21.8066 25.4113 21.5298 25.9804C21.2562 26.5494 21.1194 27.2475 21.1194 28.0746C21.1194 28.9017 21.2562 29.5998 21.5298 30.1688C21.8066 30.7378 22.1782 31.1685 22.6446 31.4608C23.1141 31.7531 23.6381 31.8992 24.2164 31.8992C24.5336 31.8992 24.8383 31.8557 25.1306 31.7687C25.4229 31.6815 25.6888 31.5525 25.9282 31.3815C26.1707 31.2074 26.3759 30.9944 26.5438 30.7425C26.7149 30.4875 26.8345 30.1953 26.9029 29.8656H28.0596C27.9726 30.3538 27.814 30.7907 27.584 31.1763C27.3539 31.5618 27.0678 31.8899 26.7257 32.1604C26.3837 32.4278 25.9996 32.6315 25.5736 32.7715C25.1508 32.9113 24.6983 32.9813 24.2164 32.9813C23.4018 32.9813 22.6772 32.7823 22.0429 32.3843C21.4085 31.9863 20.9095 31.4204 20.5457 30.6865C20.1819 29.9527 20 29.082 20 28.0746C20 27.0671 20.1819 26.1966 20.5457 25.4627C20.9095 24.7288 21.4085 24.1629 22.0429 23.765C22.6772 23.3669 23.4018 23.1679 24.2164 23.1679C24.6983 23.1679 25.1508 23.2378 25.5736 23.3778C25.9996 23.5177 26.3837 23.7229 26.7257 23.9935C27.0678 24.2609 27.3539 24.5874 27.584 24.973C27.814 25.3554 27.9726 25.7922 28.0596 26.2836ZM30.8803 28.541V32.8507H29.7796V23.2985H30.8803V26.806H30.9736C31.1415 26.4359 31.3934 26.142 31.7292 25.9245C32.0681 25.7037 32.519 25.5933 33.0818 25.5933C33.57 25.5933 33.9975 25.6912 34.3644 25.8871C34.7314 26.0799 35.0159 26.3768 35.218 26.778C35.4233 27.1759 35.5258 27.6828 35.5258 28.2985V32.8507H34.425V28.3731C34.425 27.8041 34.2774 27.3641 33.982 27.0531C33.6897 26.7391 33.2839 26.582 32.7647 26.582C32.404 26.582 32.0806 26.6582 31.7945 26.8106C31.5115 26.9629 31.2877 27.1853 31.1229 27.4776C30.9612 27.7699 30.8803 28.1243 30.8803 28.541ZM40.5433 33C39.853 33 39.2576 32.8476 38.757 32.5429C38.2594 32.235 37.8754 31.806 37.6049 31.2556C37.3375 30.7021 37.2037 30.0585 37.2037 29.3246C37.2037 28.5908 37.3375 27.944 37.6049 27.3843C37.8754 26.8215 38.2516 26.3831 38.7336 26.069C39.2187 25.7519 39.7846 25.5933 40.4314 25.5933C40.8045 25.5933 41.173 25.6554 41.5368 25.7799C41.9005 25.9042 42.2317 26.1064 42.5302 26.3862C42.8288 26.6629 43.0666 27.0298 43.2438 27.4869C43.421 27.944 43.5097 28.5068 43.5097 29.1753V29.6418H37.9874V28.6903H42.3903C42.3903 28.286 42.3094 27.9254 42.1478 27.6082C41.9892 27.2911 41.7622 27.0408 41.4668 26.8572C41.1745 26.6738 40.8293 26.582 40.4314 26.582C39.9929 26.582 39.6136 26.691 39.2933 26.9085C38.9762 27.1231 38.7321 27.4029 38.561 27.7482C38.3901 28.0933 38.3045 28.4633 38.3045 28.8582V29.4925C38.3045 30.0335 38.3978 30.4922 38.5843 30.8684C38.774 31.2415 39.0368 31.5261 39.3726 31.722C39.7084 31.9148 40.0986 32.0112 40.5433 32.0112C40.8325 32.0112 41.0937 31.9707 41.3269 31.8899C41.5632 31.806 41.7669 31.6815 41.9379 31.5167C42.1089 31.3488 42.241 31.1405 42.3343 30.8917L43.3977 31.1903C43.2859 31.551 43.0977 31.8682 42.8334 32.1418C42.5691 32.4122 42.2426 32.6237 41.8539 32.7761C41.4652 32.9254 41.0284 33 40.5433 33ZM48.0946 33C47.423 33 46.8446 32.8414 46.3595 32.5242C45.8744 32.207 45.5013 31.7702 45.2401 31.2136C44.9789 30.657 44.8483 30.0211 44.8483 29.306C44.8483 28.5783 44.9821 27.9362 45.2494 27.3796C45.52 26.82 45.8962 26.3831 46.3782 26.069C46.8632 25.7519 47.4292 25.5933 48.0759 25.5933C48.5796 25.5933 49.0336 25.6865 49.4379 25.8731C49.8421 26.0597 50.1733 26.3209 50.4314 26.6567C50.6894 26.9925 50.8496 27.3843 50.9117 27.8321H49.811C49.727 27.5056 49.5405 27.2164 49.2514 26.9646C48.9652 26.7096 48.5796 26.582 48.0946 26.582C47.6655 26.582 47.2892 26.694 46.9659 26.9178C46.6456 27.1386 46.3953 27.4512 46.2149 27.8554C46.0377 28.2566 45.9491 28.7276 45.9491 29.2687C45.9491 29.8222 46.0362 30.3041 46.2102 30.7145C46.3875 31.125 46.6362 31.4437 46.9566 31.6707C47.2799 31.8977 47.6593 32.0112 48.0946 32.0112C48.3807 32.0112 48.6403 31.9614 48.8735 31.8619C49.1067 31.7624 49.3041 31.6194 49.4659 31.4328C49.6275 31.2462 49.7426 31.0223 49.811 30.7612H50.9117C50.8496 31.1841 50.6957 31.565 50.45 31.9038C50.2074 32.2397 49.8856 32.5071 49.4845 32.7061C49.0865 32.902 48.6232 33 48.0946 33ZM53.547 30.2387L53.5283 28.8768H53.7522L56.8865 25.6865H58.2484L54.9089 29.0634H54.8157L53.547 30.2387ZM52.5209 32.8507V23.2985H53.6216V32.8507H52.5209ZM57.0731 32.8507L54.2746 29.306L55.0581 28.541L58.4724 32.8507H57.0731ZM63.5085 32.8507V23.2985H66.736C67.4824 23.2985 68.0949 23.426 68.5737 23.681C69.0526 23.9329 69.4071 24.2795 69.6372 24.721C69.8672 25.1627 69.9823 25.6648 69.9823 26.2276C69.9823 26.7904 69.8672 27.2894 69.6372 27.7248C69.4071 28.1601 69.0541 28.5022 68.5784 28.751C68.1027 28.9966 67.4948 29.1194 66.7547 29.1194H64.1428V28.0746H66.7174C67.2274 28.0746 67.6378 28 67.9488 27.8507C68.2628 27.7015 68.4898 27.4901 68.6298 27.2164C68.7727 26.9396 68.8443 26.6101 68.8443 26.2276C68.8443 25.8451 68.7727 25.5108 68.6298 25.2248C68.4867 24.9387 68.2582 24.718 67.9441 24.5625C67.63 24.4039 67.2149 24.3246 66.6987 24.3246H64.6652V32.8507H63.5085ZM68.0047 28.5596L70.3555 32.8507H69.0122L66.6987 28.5596H68.0047ZM74.6873 33C73.997 33 73.4016 32.8476 72.9009 32.5429C72.4035 32.235 72.0194 31.806 71.7488 31.2556C71.4814 30.7021 71.3478 30.0585 71.3478 29.3246C71.3478 28.5908 71.4814 27.944 71.7488 27.3843C72.0194 26.8215 72.3956 26.3831 72.8776 26.069C73.3627 25.7519 73.9286 25.5933 74.5753 25.5933C74.9485 25.5933 75.317 25.6554 75.6808 25.7799C76.0446 25.9042 76.3757 26.1064 76.6742 26.3862C76.9728 26.6629 77.2106 27.0298 77.3878 27.4869C77.5651 27.944 77.6537 28.5068 77.6537 29.1753V29.6418H72.1314V28.6903H76.5343C76.5343 28.286 76.4534 27.9254 76.2918 27.6082C76.1332 27.2911 75.9062 27.0408 75.6108 26.8572C75.3185 26.6738 74.9734 26.582 74.5753 26.582C74.137 26.582 73.7576 26.691 73.4374 26.9085C73.1202 27.1231 72.8761 27.4029 72.705 27.7482C72.534 28.0933 72.4485 28.4633 72.4485 28.8582V29.4925C72.4485 30.0335 72.5418 30.4922 72.7283 30.8684C72.918 31.2415 73.1808 31.5261 73.5166 31.722C73.8524 31.9148 74.2426 32.0112 74.6873 32.0112C74.9765 32.0112 75.2376 31.9707 75.4709 31.8899C75.7072 31.806 75.9109 31.6815 76.0818 31.5167C76.2529 31.3488 76.385 31.1405 76.4784 30.8917L77.5418 31.1903C77.4298 31.551 77.2417 31.8682 76.9774 32.1418C76.7132 32.4122 76.3867 32.6237 75.9979 32.7761C75.6092 32.9254 75.1724 33 74.6873 33ZM84.9683 25.6865L82.3191 32.8507H81.1996L78.5504 25.6865H79.7444L81.722 31.3955H81.7967L83.7743 25.6865H84.9683ZM86.4211 32.8507V25.6865H87.5219V32.8507H86.4211ZM86.9809 24.4925C86.7664 24.4925 86.5813 24.4195 86.4258 24.2734C86.2735 24.1271 86.1973 23.9515 86.1973 23.7462C86.1973 23.541 86.2735 23.3654 86.4258 23.2192C86.5813 23.0731 86.7664 23 86.9809 23C87.1954 23 87.3788 23.0731 87.5312 23.2192C87.6867 23.3654 87.7644 23.541 87.7644 23.7462C87.7644 23.9515 87.6867 24.1271 87.5312 24.2734C87.3788 24.4195 87.1954 24.4925 86.9809 24.4925ZM92.5417 33C91.8514 33 91.256 32.8476 90.7553 32.5429C90.2578 32.235 89.8738 31.806 89.6032 31.2556C89.3359 30.7021 89.2022 30.0585 89.2022 29.3246C89.2022 28.5908 89.3359 27.944 89.6032 27.3843C89.8738 26.8215 90.25 26.3831 90.732 26.069C91.2171 25.7519 91.783 25.5933 92.4297 25.5933C92.8029 25.5933 93.1714 25.6554 93.5352 25.7799C93.899 25.9042 94.2301 26.1064 94.5286 26.3862C94.8272 26.6629 95.065 27.0298 95.2422 27.4869C95.4195 27.944 95.5081 28.5068 95.5081 29.1753V29.6418H89.9858V28.6903H94.3887C94.3887 28.286 94.3078 27.9254 94.1462 27.6082C93.9876 27.2911 93.7606 27.0408 93.4652 26.8572C93.1729 26.6738 92.8278 26.582 92.4297 26.582C91.9914 26.582 91.612 26.691 91.2918 26.9085C90.9746 27.1231 90.7305 27.4029 90.5594 27.7482C90.3885 28.0933 90.3029 28.4633 90.3029 28.8582V29.4925C90.3029 30.0335 90.3962 30.4922 90.5827 30.8684C90.7724 31.2415 91.0352 31.5261 91.371 31.722C91.7068 31.9148 92.097 32.0112 92.5417 32.0112C92.8309 32.0112 93.092 31.9707 93.3253 31.8899C93.5616 31.806 93.7653 31.6815 93.9362 31.5167C94.1073 31.3488 94.2394 31.1405 94.3328 30.8917L95.3962 31.1903C95.2843 31.551 95.0961 31.8682 94.8318 32.1418C94.5676 32.4122 94.2411 32.6237 93.8523 32.7761C93.4636 32.9254 93.0268 33 92.5417 33ZM98.8057 32.8507L96.6229 25.6865H97.7796L99.3281 31.1716H99.4027L100.933 25.6865H102.108L103.619 31.153H103.694L105.243 25.6865H106.398L104.216 32.8507H103.134L101.567 27.347H101.455L99.8877 32.8507H98.8057ZM112.928 27.2911L111.94 27.5708C111.878 27.4061 111.786 27.246 111.664 27.0905C111.547 26.9319 111.385 26.8013 111.179 26.6987C110.975 26.5961 110.712 26.5447 110.391 26.5447C109.953 26.5447 109.588 26.6459 109.296 26.8479C109.007 27.0469 108.861 27.3004 108.861 27.6082C108.861 27.8818 108.961 28.098 109.16 28.2566C109.359 28.415 109.67 28.5473 110.093 28.653L111.156 28.9141C111.797 29.0697 112.274 29.3075 112.588 29.6278C112.902 29.945 113.06 30.3538 113.06 30.8544C113.06 31.2649 112.942 31.6318 112.705 31.9552C112.472 32.2786 112.145 32.5335 111.726 32.7201C111.305 32.9066 110.817 33 110.261 33C109.53 33 108.926 32.8414 108.446 32.5242C107.968 32.207 107.665 31.7437 107.537 31.1343L108.582 30.8731C108.682 31.2587 108.87 31.5479 109.146 31.7406C109.426 31.9334 109.792 32.0298 110.242 32.0298C110.756 32.0298 111.163 31.921 111.464 31.7033C111.769 31.4826 111.921 31.2182 111.921 30.9104C111.921 30.6617 111.834 30.4534 111.66 30.2854C111.486 30.1144 111.219 29.9869 110.858 29.9029L109.663 29.6231C109.008 29.4676 108.526 29.2266 108.218 28.9001C107.913 28.5706 107.761 28.1586 107.761 27.6642C107.761 27.2599 107.874 26.9023 108.102 26.5913C108.331 26.2805 108.644 26.0363 109.038 25.8591C109.437 25.6819 109.888 25.5933 110.391 25.5933C111.101 25.5933 111.657 25.7488 112.062 26.0597C112.469 26.3706 112.758 26.781 112.928 27.2911ZM121.321 33C120.674 33 120.106 32.846 119.618 32.5382C119.133 32.2303 118.753 31.7997 118.48 31.2462C118.209 30.6927 118.075 30.046 118.075 29.306C118.075 28.5596 118.209 27.9083 118.48 27.3517C118.753 26.795 119.133 26.3628 119.618 26.055C120.106 25.7471 120.674 25.5933 121.321 25.5933C121.967 25.5933 122.534 25.7471 123.019 26.055C123.507 26.3628 123.886 26.795 124.156 27.3517C124.43 27.9083 124.566 28.5596 124.566 29.306C124.566 30.046 124.43 30.6927 124.156 31.2462C123.886 31.7997 123.507 32.2303 123.019 32.5382C122.534 32.846 121.967 33 121.321 33ZM121.321 32.0112C121.812 32.0112 122.217 31.8852 122.534 31.6334C122.85 31.3815 123.086 31.0503 123.238 30.6399C123.39 30.2294 123.466 29.7848 123.466 29.306C123.466 28.8271 123.39 28.3809 123.238 27.9674C123.086 27.5538 122.85 27.2195 122.534 26.9646C122.217 26.7096 121.812 26.582 121.321 26.582C120.83 26.582 120.425 26.7096 120.108 26.9646C119.791 27.2195 119.556 27.5538 119.404 27.9674C119.251 28.3809 119.175 28.8271 119.175 29.306C119.175 29.7848 119.251 30.2294 119.404 30.6399C119.556 31.0503 119.791 31.3815 120.108 31.6334C120.425 31.8852 120.83 32.0112 121.321 32.0112ZM127.348 28.541V32.8507H126.248V25.6865H127.31V26.806H127.403C127.572 26.4422 127.827 26.1498 128.169 25.9291C128.511 25.7052 128.952 25.5933 129.494 25.5933C129.979 25.5933 130.404 25.6927 130.767 25.8917C131.13 26.0877 131.414 26.3862 131.615 26.7873C131.818 27.1853 131.918 27.689 131.918 28.2985V32.8507H130.818V28.3731C130.818 27.8103 130.672 27.3719 130.379 27.0578C130.087 26.7406 129.687 26.582 129.177 26.582C128.825 26.582 128.511 26.6582 128.234 26.8106C127.961 26.9629 127.745 27.1853 127.586 27.4776C127.428 27.7699 127.348 28.1243 127.348 28.541Z" fill="white"/>
<path d="M178.589 28.36C178.589 27.3066 178.495 26.3066 178.334 25.3333H163.138V31.3466H171.838C171.448 33.32 170.305 34.9866 168.611 36.12V40.12H173.802C176.841 37.3333 178.589 33.2266 178.589 28.36Z" fill="#4285F4"/>
<path d="M163.138 44C167.495 44 171.139 42.56 173.802 40.12L168.611 36.12C167.158 37.08 165.316 37.6667 163.138 37.6667C158.928 37.6667 155.365 34.8533 154.087 31.0534H148.735V35.1733C151.384 40.4 156.83 44 163.138 44Z" fill="#34A853"/>
<path d="M154.087 31.0534C153.751 30.0934 153.576 29.0666 153.576 28C153.576 26.9333 153.764 25.9066 154.087 24.9466V20.8266H148.735C147.632 22.9866 147 25.4133 147 28C147 30.5866 147.632 33.0133 148.735 35.1733L154.087 31.0534Z" fill="#FBBC05"/>
<path d="M163.138 18.3333C165.518 18.3333 167.643 19.1467 169.324 20.7333L173.923 16.1733C171.139 13.5867 167.495 12 163.138 12C156.83 12 151.384 15.6 148.735 20.8266L154.087 24.9466C155.365 21.1466 158.928 18.3333 163.138 18.3333Z" fill="#EA4335"/>
<path d="M215.869 31.5083C215.869 34.6545 213.399 36.9729 210.368 36.9729C207.338 36.9729 204.868 34.6545 204.868 31.5083C204.868 28.3399 207.338 26.0436 210.368 26.0436C213.399 26.0436 215.869 28.3399 215.869 31.5083ZM213.461 31.5083C213.461 29.5421 212.03 28.1969 210.368 28.1969C208.707 28.1969 207.276 29.5421 207.276 31.5083C207.276 33.4547 208.707 34.8196 210.368 34.8196C212.03 34.8196 213.461 33.4521 213.461 31.5083Z" fill="white"/>
<path d="M227.734 31.5083C227.734 34.6545 225.265 36.9729 222.234 36.9729C219.203 36.9729 216.734 34.6545 216.734 31.5083C216.734 28.3423 219.203 26.0436 222.234 26.0436C225.265 26.0436 227.734 28.3399 227.734 31.5083ZM225.327 31.5083C225.327 29.5421 223.895 28.1969 222.234 28.1969C220.573 28.1969 219.142 29.5421 219.142 31.5083C219.142 33.4547 220.573 34.8196 222.234 34.8196C223.895 34.8196 225.327 33.4521 225.327 31.5083Z" fill="white"/>
<path d="M239.106 26.3737V36.1845C239.106 40.2201 236.718 41.8684 233.895 41.8684C231.237 41.8684 229.638 40.0969 229.035 38.6482L231.131 37.7785C231.504 38.668 232.419 39.7174 233.892 39.7174C235.699 39.7174 236.819 38.6064 236.819 36.5146V35.7286H236.735C236.196 36.3914 235.158 36.9704 233.848 36.9704C231.106 36.9704 228.595 34.5904 228.595 31.528C228.595 28.4433 231.106 26.0436 233.848 26.0436C235.155 26.0436 236.194 26.6227 236.735 27.2656H236.819V26.3763H239.106V26.3737ZM236.99 31.528C236.99 29.6037 235.702 28.1969 234.063 28.1969C232.402 28.1969 231.01 29.6037 231.01 31.528C231.01 33.4324 232.402 34.8196 234.063 34.8196C235.702 34.8196 236.99 33.4324 236.99 31.528Z" fill="white"/>
<path d="M242.876 20.6234V36.6379H240.527V20.6234H242.876Z" fill="white"/>
<path d="M252.027 33.3067L253.896 34.5485C253.293 35.4379 251.839 36.9703 249.328 36.9703C246.213 36.9703 243.887 34.5706 243.887 31.5057C243.887 28.2561 246.233 26.0412 249.058 26.0412C251.904 26.0412 253.295 28.298 253.75 29.5176L254 30.1384L246.67 33.1638C247.232 34.2602 248.104 34.8195 249.328 34.8195C250.554 34.8195 251.404 34.2183 252.027 33.3067ZM246.275 31.3406L251.174 29.313C250.905 28.6305 250.094 28.155 249.14 28.155C247.916 28.155 246.213 29.2317 246.275 31.3406Z" fill="white"/>
<path d="M195.979 30.0866V27.7682H203.817C203.894 28.1722 203.934 28.6502 203.934 29.1677C203.934 30.907 203.457 33.058 201.919 34.5904C200.423 36.1426 198.512 36.9704 195.981 36.9704C191.289 36.9704 187.344 33.1614 187.344 28.4852C187.344 23.8089 191.289 20 195.981 20C198.577 20 200.426 21.0151 201.815 22.3381L200.174 23.974C199.177 23.0428 197.828 22.3184 195.979 22.3184C192.552 22.3184 189.873 25.0704 189.873 28.4852C189.873 31.9 192.552 34.652 195.979 34.652C198.201 34.652 199.467 33.7626 200.277 32.9545C200.935 32.299 201.368 31.3629 201.538 30.0842L195.979 30.0866Z" fill="white"/>
</svg>
